<svg xmlns="http://www.w3.org/2000/svg" width="590" height="128" viewBox="0 0 590 128" role="img" aria-label="Your church: Community dinner this Sunday.">

    <defs>
      <filter id="cardShadow" x="-20%" y="-25%" width="140%" height="150%">
        <feDropShadow dx="0" dy="12" stdDeviation="14" flood-color="#000000" flood-opacity="0.10"/>
      </filter>
    </defs>
    
<g transform="translate(0 0)">
<rect x="0.5" y="0.5" width="589" height="127" rx="18" fill="#FAF9F5" stroke="#E7E3DA" filter="url(#cardShadow)"/>
<g transform="translate(24 32) scale(1)"><g><circle cx="32" cy="32" r="28" fill="#E8ECDD"/>
        <path d="M32 12v12" stroke="#52683C" stroke-width="3.4" stroke-linecap="round" stroke-linejoin="round" fill="none"/>
        <path d="M26.5 17.5h11" stroke="#52683C" stroke-width="3.4" stroke-linecap="round" stroke-linejoin="round" fill="none"/>
        <path d="M18 52V30l14-10 14 10v22" stroke="#52683C" stroke-width="3.4" stroke-linecap="round" stroke-linejoin="round" fill="none"/>
        <path d="M25 52V39.5c0-4 3.1-7.2 7-7.2s7 3.2 7 7.2V52" stroke="#52683C" stroke-width="3.4" stroke-linecap="round" stroke-linejoin="round" fill="none"/>
        <path d="M14 52h36" stroke="#52683C" stroke-width="3.4" stroke-linecap="round" stroke-linejoin="round" fill="none"/>
        <circle cx="32" cy="28" r="2.4" fill="#52683C"/>
        </g></g>
<text x="116" y="39" font-family="Inter, ui-sans-serif, system-ui, -apple-system, BlinkMacSystemFont, 'Segoe UI', Arial, sans-serif" font-size="18" font-weight="800" fill="#394927">Your church</text>
<text x="116" y="69" font-family="Inter, ui-sans-serif, system-ui, -apple-system, BlinkMacSystemFont, 'Segoe UI', Arial, sans-serif" font-size="19" font-weight="800" fill="#080808">Community dinner this Sunday.</text>
<text x="116" y="96" font-family="Inter, ui-sans-serif, system-ui, -apple-system, BlinkMacSystemFont, 'Segoe UI', Arial, sans-serif" font-size="16" font-weight="500" fill="#6E6C66">Congregation</text>
<text x="560" y="39" font-family="Inter, ui-sans-serif, system-ui, -apple-system, BlinkMacSystemFont, 'Segoe UI', Arial, sans-serif" font-size="16" font-weight="600" fill="#8A8985" text-anchor="end">1d</text>
</g>
</svg>